<?xml version="1.0" encoding="utf-8"?>
<!-- Generator: Adobe Illustrator 25.4.1, SVG Export Plug-In . SVG Version: 6.00 Build 0)  -->
<svg version="1.1" id="Capa_1" xmlns="http://www.w3.org/2000/svg" xmlns:xlink="http://www.w3.org/1999/xlink" x="0px" y="0px"
	 viewBox="0 0 305.18 94.56" style="enable-background:new 0 0 305.18 94.56;" xml:space="preserve">
<style type="text/css">
	.st0{fill:#FFFFFF;}
	.st1{fill:#FF9D00;}
</style>
<g>
	<g>
		<g>
			<path class="st0" d="M0,6.1h18.34c14.67,0,24.76,10.09,24.76,22.92l0,0c0,12.84-10.09,22.92-24.76,22.92H0C0,51.95,0,6.1,0,6.1z
				 M18.34,43.7c8.25,0,13.75-5.5,13.75-13.75l0,0c0-8.25-5.5-13.75-13.75-13.75h-8.25V43.7H18.34z"/>
		</g>
		<g>
			<polygon class="st0" points="49.52,6.1 84.36,6.1 84.36,15.27 59.6,15.27 59.6,24.44 81.61,24.44 81.61,33.61 59.6,33.61 
				59.6,43.7 84.36,43.7 84.36,52.87 49.52,52.87 			"/>
		</g>
		<g>
			<polygon class="st0" points="88.95,6.1 99.95,6.1 111.87,38.2 123.79,6.1 134.8,6.1 116.46,52.87 107.29,52.87 			"/>
		</g>
		<g>
			<polygon class="st0" points="140.3,6.1 175.14,6.1 175.14,15.27 150.39,15.27 150.39,24.44 172.39,24.44 172.39,33.61 
				150.39,33.61 150.39,43.7 175.14,43.7 175.14,52.87 140.3,52.87 			"/>
		</g>
	</g>
	<g>
		<g>
			<polygon class="st0" points="0,56.38 6.45,56.38 6.45,81.27 22.12,81.27 22.12,86.8 0,86.8 			"/>
		</g>
		<g>
			<path class="st0" d="M24.89,71.13c0-9.22,7.37-15.67,16.59-15.67s16.59,6.45,16.59,15.67S50.7,86.8,41.48,86.8
				C31.34,86.8,24.89,80.35,24.89,71.13z M50.7,71.13c0-5.53-3.69-10.14-9.22-10.14s-9.22,3.69-9.22,10.14
				c0,5.53,3.69,10.14,9.22,10.14S50.7,77.58,50.7,71.13z"/>
		</g>
		<g>
			<path class="st0" d="M63.6,56.38h12.9c7.37,0,11.98,4.61,11.98,10.14l0,0c0,7.37-5.53,11.06-11.98,11.06h-5.53v9.22h-6.45
				L63.6,56.38L63.6,56.38z M75.58,71.13c3.69,0,5.53-1.84,5.53-4.61l0,0c0-2.77-1.84-4.61-5.53-4.61h-5.53v9.22H75.58z"/>
		</g>
		<g>
			<polygon class="st0" points="93.1,56.38 116.14,56.38 116.14,61.91 99.55,61.91 99.55,68.36 114.3,68.36 114.3,74.82 
				99.55,74.82 99.55,81.27 116.14,81.27 116.14,86.8 93.1,86.8 			"/>
		</g>
		<g>
			<path class="st0" d="M122.59,56.38h13.83c3.69,0,7.37,0.92,9.22,2.77c1.84,1.84,2.77,3.69,2.77,7.37l0,0
				c0,4.61-2.77,8.3-6.45,9.22l7.37,11.06h-8.3l-6.45-10.14h-5.53V86.8h-6.45V56.38z M136.42,71.13c3.69,0,5.53-1.84,5.53-4.61l0,0
				c0-2.77-1.84-4.61-5.53-4.61h-6.45v9.22H136.42z"/>
		</g>
		<g>
			<path class="st0" d="M153.01,82.19l3.69-4.61c2.77,1.84,5.53,3.69,9.22,3.69c2.77,0,4.61-0.92,4.61-2.77l0,0
				c0-1.84-0.92-2.77-6.45-3.69c-6.45-1.84-10.14-3.69-10.14-9.22l0,0c0-5.53,4.61-9.22,11.06-9.22c4.61,0,8.3,1.84,11.06,3.69
				l-3.69,4.61c-2.77-1.84-5.53-2.77-8.3-2.77c-2.77,0-3.69,0.92-3.69,2.77l0,0c0,1.84,0.92,2.77,6.45,3.69
				c6.45,1.84,10.14,3.69,10.14,9.22l0,0c0,6.45-4.61,9.22-11.06,9.22C161.31,86.8,156.7,85.88,153.01,82.19z"/>
		</g>
	</g>
	<g>
		<path class="st1" d="M174.92,7.28C180.44,2.43,187.93,0,197.39,0c6.28,0,11.66,1.09,16.14,3.26c4.48,2.18,7.87,5.15,10.17,8.92
			c2.3,3.77,3.45,8,3.45,12.68c0,5.53-1.38,10.03-4.14,13.5c-2.76,3.48-5.99,5.84-9.67,7.1v0.5c4.77,1.59,8.54,4.23,11.3,7.91
			c2.76,3.68,4.14,8.41,4.14,14.19c0,5.19-1.19,9.78-3.58,13.75c-2.39,3.98-5.86,7.09-10.42,9.36c-4.56,2.26-9.98,3.39-16.26,3.39
			c-10.05,0-18.06-2.47-24.05-7.41c-5.99-4.94-9.15-12.39-9.48-22.35h20.84c0.08,3.69,1.13,6.59,3.14,8.73s4.94,3.2,8.79,3.2
			c3.26,0,5.8-0.94,7.6-2.83c1.8-1.88,2.7-4.37,2.7-7.47c0-4.02-1.28-6.93-3.83-8.73c-2.55-1.8-6.64-2.7-12.24-2.7h-4.02V37.55h4.02
			c4.27,0,7.72-0.73,10.36-2.2c2.64-1.46,3.96-4.08,3.96-7.85c0-3.01-0.84-5.36-2.51-7.03c-1.68-1.67-3.98-2.51-6.91-2.51
			c-3.18,0-5.55,0.96-7.09,2.89c-1.55,1.93-2.45,4.31-2.7,7.16h-20.97C166.46,19.05,169.39,12.14,174.92,7.28z"/>
		<path class="st1" d="M270.4,22.1V2.13h34.78V93.8h-22.35V22.1H270.4z"/>
		<path class="st0" d="M258.58,80.37l-10.35-14.99l-8.7,14.99h-17.89l17.79-27.56l-18.27-26.4h18.56l10.35,14.89l8.7-14.89h17.89
			l-18.08,27.17l18.56,26.78H258.58z"/>
	</g>
</g>
</svg>
